<?xml version="1.0" encoding="utf-8"?>
<!-- Generator: Adobe Illustrator 27.5.0, SVG Export Plug-In . SVG Version: 6.00 Build 0)  -->
<svg version="1.1" id="Lag_1" xmlns="http://www.w3.org/2000/svg" xmlns:xlink="http://www.w3.org/1999/xlink" x="0px" y="0px"
	 viewBox="0 0 21.3 38.3" style="enable-background:new 0 0 21.3 38.3;" xml:space="preserve">
<style type="text/css">
	.st0{fill:#FFFFFF;}
</style>
<path class="st0" d="M0.6,37.7C0.2,37.3,0,36.9,0,36.3s0.2-1,0.6-1.4l15.8-15.7L0.6,3.4C0.2,3.1,0,2.6,0,2.1s0.2-1,0.6-1.4
	C0.9,0.2,1.4,0,2,0s1,0.2,1.4,0.6l17.6,17.5c0.2,0.2,0.3,0.3,0.4,0.5c0.1,0.2,0.1,0.4,0.1,0.6c0,0.2,0,0.4-0.1,0.5
	c-0.1,0.2-0.2,0.3-0.4,0.5L3.4,37.8C3,38.1,2.6,38.3,2,38.3S1,38.1,0.6,37.7z"/>
</svg>
