<?xml version="1.0" encoding="utf-8"?>
<!-- Generator: Adobe Illustrator 27.5.0, SVG Export Plug-In . SVG Version: 6.00 Build 0)  -->
<svg version="1.1" id="Lag_1" xmlns="http://www.w3.org/2000/svg" xmlns:xlink="http://www.w3.org/1999/xlink" x="0px" y="0px"
	 viewBox="0 0 41.1 23" style="enable-background:new 0 0 41.1 23;" xml:space="preserve">
<style type="text/css">
	.st0{fill:#7B8C3E;}
</style>
<path class="st0" d="M0.3,20.5l9-12c0.6-0.8,1.8-0.8,2.4,0l8.1,10.8c0.3,0.4,0.7,0.6,1.2,0.6h12.5c1.2,0,2-1.4,1.2-2.4l-9-11.9
	c-0.6-0.8-1.8-0.8-2.4,0l-3.8,5.1c-0.6,0.8-1.8,0.8-2.4,0l0,0c-0.4-0.5-0.4-1.3,0-1.8l6.3-8.3c0.6-0.8,1.8-0.8,2.4,0l15,20
	c0.7,1,0,2.4-1.2,2.4H1.5C0.3,22.9-0.4,21.5,0.3,20.5z"/>
</svg>
